<svg aria-hidden="true" style="position:absolute;width:0;height:0;overflow:hidden" xmlns="http://www.w3.org/2000/svg">
  <defs>
    <symbol id="logo" viewBox="0 0 107 32">
      <path fill="#ff6b0a" style="fill:var(--color1, #ff6b0a)" d="M106.667 0v32H59.536V0h47.131zM74.42 8.811v13.927l.001.044a.842.842 0 0 1-.001.087c-.007.08.015.128.107.115a.485.485 0 0 1 .066-.001l.033.001h3.582c.075.001.112.001.129-.017s.016-.051.014-.116l-.001-.078V8.83l-.001-.033a.485.485 0 0 1 .001-.066c.008-.082-.02-.125-.109-.115-.018.002-.036.001-.054.001l-.028-.001h-3.55l-.062-.001c-.065-.001-.098-.001-.114.015s-.016.049-.015.116l.001.064zm19.579-.194h-5.863c-1.954 0-3.908 0-5.86-.002h-.133c-.066-.003-.089.028-.084.089a.486.486 0 0 1 0 .054v3.398c0 .072-.001.107.017.124s.051.017.118.016H85.923c.12 0 .18 0 .209.03s.029.087.029.2v10.335c-.001.059-.001.09.014.106.017.018.052.017.127.017h3.571c.111 0 .166 0 .193-.028s.027-.08.027-.186V12.488l-.001-.059c-.001-.063-.001-.097.015-.114.018-.019.055-.018.133-.018h3.798c.162 0 .162 0 .164-.159V8.759c.001-.072.001-.108-.016-.126s-.053-.017-.123-.016L94 8.618z"/>
      <path fill="#010101" style="fill:var(--color2, #010101)" d="m47.132 0 12.403 16-12.403 16H0V0h47.132zm-26.38 13.662.215.174a.371.371 0 0 0 .106-.107.256.256 0 0 1 .02-.026c.254-.302.507-.606.76-.91.507-.606 1.012-1.212 1.518-1.82.101-.122.097-.177-.018-.276a12.617 12.617 0 0 0-.277-.233c-.803-.657-1.685-1.17-2.684-1.467a9.43 9.43 0 0 0-2.043-.353c-.905-.061-1.802-.031-2.691.174-3.112.716-5.434 3.292-5.707 6.594a7.795 7.795 0 0 0 .225 2.638c.519 1.96 1.645 3.461 3.434 4.45.975.539 2.03.823 3.14.912.94.076 1.87.018 2.788-.189 1.553-.35 2.925-1.056 4.146-2.067a.333.333 0 0 0 .137-.289c-.004-1.572-.004-3.145-.003-4.717v-1.179a.66.66 0 0 0-.003-.062c-.003-.046-.006-.092.006-.134.015-.049-.012-.077-.037-.104-.021-.022-.042-.044-.039-.077.007-.054-.03-.062-.073-.062h-6.556l-.038.001c-.026.001-.052.002-.077-.001-.066-.007-.087.026-.083.087a.657.657 0 0 1 .001.077l-.001.038V17.839l-.001.074c-.001.063-.002.096.014.112s.052.017.125.016H19.772c.072-.001.107-.001.124.016.016.016.015.048.014.11l-.001.078v.679c0 .308 0 .311-.279.445-.818.391-1.681.503-2.573.391-.991-.123-1.784-.591-2.365-1.401-.378-.527-.585-1.122-.662-1.763-.097-.818.002-1.605.373-2.348.448-.892 1.125-1.533 2.098-1.827.682-.207 1.373-.153 2.056-.003.619.135 1.159.437 1.657.816.182.138.359.281.539.427zm18.346-2.98c-1.528-1.39-3.348-2.052-5.229-2.066-.869.002-1.518.072-2.207.251-1.998.521-3.563 1.638-4.602 3.422-1.067 1.83-1.283 3.793-.687 5.812.667 2.257 2.089 3.9 4.29 4.815 1.69.701 3.44.795 5.206.332 2.051-.537 3.624-1.725 4.654-3.578.869-1.562 1.102-3.238.778-4.987-.291-1.572-1.017-2.919-2.203-4zm-8.437 3.528c.666-1.227 1.729-1.815 2.762-1.838 2.094-.005 3.464 1.173 3.837 2.806.226.984.125 1.94-.358 2.834-.57 1.05-1.458 1.661-2.654 1.797-1.156.133-2.165-.194-2.99-1.025a3.579 3.579 0 0 1-.983-1.914c-.172-.928-.066-1.827.386-2.66z"/>
    </symbol>
    <symbol id="javascript" viewBox="0 0 32 32">
      <path fill="#f7df1e" style="fill:var(--color3, #f7df1e)" d="M0 0h32v32H0V0z"/>
      <path style="fill:var(--color4, #000)" d="m8.414 26.741 2.449-1.482c.473.838.902 1.546 1.933 1.546.988 0 1.611-.387 1.611-1.89V14.69h3.007v10.267c0 3.115-1.826 4.532-4.489 4.532-2.406 0-3.802-1.246-4.511-2.75zm10.634-.322 2.448-1.418c.645 1.053 1.482 1.826 2.964 1.826 1.246 0 2.041-.623 2.041-1.482 0-1.031-.816-1.396-2.191-1.997l-.752-.323c-2.17-.923-3.609-2.083-3.609-4.532 0-2.256 1.718-3.974 4.404-3.974 1.912 0 3.287.666 4.274 2.406l-2.341 1.504c-.516-.924-1.074-1.289-1.933-1.289-.881 0-1.439.558-1.439 1.289 0 .902.558 1.268 1.847 1.826l.752.322c2.556 1.096 3.995 2.212 3.995 4.726 0 2.707-2.127 4.189-4.983 4.189-2.792 0-4.597-1.332-5.477-3.072z"/>
    </symbol>
    <symbol id="icon-autosave" viewBox="0 0 32 32">
<path d="M16 2.666v8c0 0.707 0.281 1.386 0.781 1.886s1.178 0.781 1.886 0.781h8v13.333c0 0.707-0.281 1.386-0.781 1.886s-1.178 0.781-1.886 0.781h-9.080c1.38-1.436 2.223-3.305 2.387-5.29s-0.361-3.966-1.486-5.61c-1.125-1.644-2.783-2.85-4.693-3.415s-3.957-0.455-5.795 0.312v-9.997c0-0.707 0.281-1.386 0.781-1.886s1.178-0.781 1.886-0.781h8zM18 3.333v7.333c0 0.177 0.070 0.346 0.195 0.471s0.295 0.195 0.471 0.195h7.333l-8-8zM1.333 23.333c0 0.963 0.19 1.917 0.558 2.806s0.909 1.698 1.59 2.379c0.681 0.681 1.489 1.221 2.379 1.59s1.843 0.558 2.806 0.558 1.917-0.19 2.806-0.558c0.89-0.368 1.698-0.909 2.379-1.59s1.221-1.489 1.59-2.379c0.368-0.89 0.558-1.843 0.558-2.806 0-1.945-0.773-3.81-2.148-5.185s-3.241-2.148-5.185-2.148c-1.945 0-3.81 0.773-5.185 2.148s-2.148 3.241-2.148 5.185zM12.667 18.666c0.177 0 0.346 0.070 0.471 0.195s0.195 0.295 0.195 0.471v2.667c0 0.177-0.070 0.346-0.195 0.471s-0.295 0.195-0.471 0.195h-2.667c-0.177 0-0.346-0.070-0.471-0.195s-0.195-0.295-0.195-0.471c0-0.177 0.070-0.346 0.195-0.471s0.295-0.195 0.471-0.195h1.333c-0.31-0.414-0.713-0.75-1.176-0.981s-0.973-0.352-1.491-0.352c-1.111 0-2.096 0.543-2.703 1.381-0.050 0.073-0.115 0.135-0.19 0.183s-0.158 0.080-0.246 0.095c-0.088 0.015-0.177 0.012-0.264-0.008s-0.168-0.057-0.24-0.109c-0.072-0.052-0.133-0.118-0.179-0.194s-0.077-0.16-0.090-0.248-0.008-0.177 0.014-0.263c0.022-0.086 0.061-0.167 0.115-0.238 0.433-0.599 1.001-1.086 1.659-1.422s1.386-0.511 2.124-0.511c1.307 0 2.487 0.537 3.333 1.4v-0.733c0-0.177 0.070-0.346 0.195-0.471s0.295-0.195 0.471-0.195zM5.333 26.6v0.733c0 0.177-0.070 0.346-0.195 0.471s-0.295 0.195-0.471 0.195c-0.177 0-0.346-0.070-0.471-0.195s-0.195-0.295-0.195-0.471v-2.667c0-0.177 0.070-0.346 0.195-0.471s0.295-0.195 0.471-0.195h2.667c0.177 0 0.346 0.070 0.471 0.195s0.195 0.295 0.195 0.471-0.070 0.346-0.195 0.471c-0.125 0.125-0.295 0.195-0.471 0.195h-1.333c0.608 0.811 1.577 1.333 2.667 1.333 1.021 0 1.936-0.459 2.548-1.184 0.115-0.132 0.277-0.213 0.452-0.226s0.347 0.043 0.481 0.155c0.134 0.113 0.218 0.274 0.234 0.448s-0.037 0.348-0.147 0.483c-0.438 0.519-0.984 0.936-1.6 1.223s-1.287 0.435-1.966 0.435c-0.621 0-1.235-0.124-1.808-0.364s-1.091-0.593-1.526-1.036z"></path>
</symbol>
<symbol id="icon-Stop" viewBox="0 0 32 32">
<path d="M16 3.667c-6.81 0-12.333 5.52-12.333 12.333s5.523 12.333 12.333 12.333c6.812 0 12.333-5.52 12.333-12.333s-5.52-12.333-12.333-12.333zM16 6.667c1.85 0 3.572 0.548 5.024 1.48l-12.877 12.877c-0.967-1.497-1.48-3.242-1.48-5.024 0-5.146 4.187-9.333 9.333-9.333zM16 25.333c-1.782-0-3.526-0.514-5.024-1.48l12.876-12.877c0.967 1.497 1.48 3.242 1.48 5.024 0 5.146-4.186 9.333-9.332 9.333z"></path>
</symbol>
<symbol id="icon-time" viewBox="0 0 32 32">
<path d="M24.133 12.4l2-4.4-5.467-0.533c0.8 0.667 1.467 1.467 2 2.533 0.4 0.8 0.667 1.467 0.933 2.267-0.667-0.133-1.467-0.267-2.267-0.267h-0.533c-1.067-2.4-3.333-4-6.133-4-3.733 0-6.667 2.933-6.667 6.667 0 2.8 1.6 5.067 4 6.133v0.533c0 5.2 4.133 9.333 9.333 9.333s9.333-4.133 9.333-9.333c0-4.133-2.8-7.733-6.533-8.933zM21.333 28c-3.733 0-6.667-2.933-6.667-6.667s2.933-6.667 6.667-6.667c3.733 0 6.667 2.933 6.667 6.667s-2.933 6.667-6.667 6.667zM22 21.6l3.867 2.267-1.067 1.6-4.8-2.8v-6.667h2v5.6zM14.667 5.334c-1.067 0-2.133 0.267-3.2 0.533l3.2-4.533 3.2 4.533c-1.067-0.267-2.133-0.533-3.2-0.533zM6.533 19.334c0.533 0.933 1.333 1.867 2.133 2.533l-5.467-0.533 2.4-5.067c0.133 1.067 0.4 2.133 0.933 3.067zM5.467 13.067l-2.4-5.067 5.6-0.4c-0.8 0.667-1.467 1.467-2.133 2.4-0.533 0.933-0.933 2-1.067 3.067z"></path>
</symbol>
<symbol id="icon-instagram" viewBox="0 0 32 32">
<path stroke-linejoin="round" stroke-linecap="round" stroke-miterlimit="4" stroke-width="0.8" d="M3.333 16c0-5.971 0-8.957 1.855-10.812s4.84-1.855 10.812-1.855c5.971 0 8.957 0 10.812 1.855s1.855 4.84 1.855 10.812c0 5.971 0 8.957-1.855 10.812s-4.84 1.855-10.812 1.855c-5.971 0-8.957 0-10.812-1.855s-1.855-4.84-1.855-10.812z"></path>
<path stroke-linejoin="round" stroke-linecap="round" stroke-miterlimit="4" stroke-width="0.8" d="M23.344 8.666h-0.013M22 16c0 1.591-0.632 3.117-1.757 4.243s-2.651 1.757-4.243 1.757c-1.591 0-3.117-0.632-4.243-1.757s-1.757-2.651-1.757-4.243c0-1.591 0.632-3.117 1.757-4.243s2.651-1.757 4.243-1.757c1.591 0 3.117 0.632 4.243 1.757s1.757 2.651 1.757 4.243z"></path>
</symbol>
<symbol id="icon-facebook" viewBox="0 0 30 32">
<path d="M19.348 26.074v-9.179h3.081l0.461-3.577h-3.544v-2.284c0-1.036 0.288-1.742 1.774-1.742h1.894v-3.2c-0.917-0.099-1.839-0.146-2.761-0.142-2.731 0-4.6 1.668-4.6 4.729v2.639h-3.091v3.577h3.090v9.179h-11.263c-0.723 0-1.308-0.585-1.308-1.308v-21.087c0-0.723 0.586-1.308 1.308-1.308h21.087c0.723 0 1.308 0.585 1.308 1.308v21.087c0 0.723-0.585 1.308-1.308 1.308h-6.129z"></path>
</symbol>
<symbol id="icon-close-btn" viewBox="0 0 32 32">
<path d="M6.1 6.1c0.375-0.375 0.884-0.586 1.414-0.586s1.039 0.211 1.414 0.586l7.072 7.072 7.072-7.072c0.377-0.364 0.882-0.566 1.407-0.561s1.026 0.215 1.397 0.586c0.371 0.371 0.581 0.872 0.586 1.397s-0.197 1.030-0.561 1.407l-7.072 7.072 7.072 7.072c0.364 0.377 0.566 0.882 0.561 1.407s-0.215 1.026-0.586 1.397c-0.371 0.371-0.872 0.581-1.397 0.586s-1.030-0.197-1.407-0.561l-7.072-7.072-7.072 7.072c-0.377 0.364-0.882 0.566-1.407 0.561s-1.026-0.215-1.397-0.586c-0.371-0.371-0.581-0.872-0.586-1.397s0.197-1.030 0.561-1.407l7.072-7.072-7.072-7.072c-0.375-0.375-0.586-0.884-0.586-1.414s0.211-1.039 0.586-1.414z"></path>
</symbol>
<symbol id="icon-menu" viewBox="0 0 32 32">
<path stroke-linejoin="round" stroke-linecap="round" stroke-miterlimit="4" stroke-width="3.2" d="M4 16h24M4 8h24M4 24h24"></path>
</symbol>
<symbol id="icon-Vector" viewBox="0 0 60 32">
<path d="M54.311 0.231l4.711 4.716-25.676 25.684c-0.411 0.414-0.901 0.743-1.439 0.967s-1.117 0.34-1.7 0.34c-0.584 0-1.162-0.115-1.701-0.34s-1.028-0.553-1.439-0.967l-25.689-25.684 4.711-4.711 24.111 24.107 24.111-24.111z"></path>
</symbol>
<symbol id="icon-arrow-up" viewBox="0 0 24 24">
  <path d="M12 4l-8 8h5v8h6v-8h5z"/>
</symbol>
<symbol id="icon-attachment" viewBox="0 0 32 32">
<path d="M20.807 10.22l-2.030-2.029-10.15 10.148c-1.682 1.681-1.682 4.408 0 6.089s4.408 1.681 6.090 0l12.18-12.178c2.804-2.802 2.804-7.346 0-10.148-2.802-2.803-7.347-2.803-10.149 0l-12.788 12.787c-0.009 0.009-0.019 0.018-0.027 0.026-3.909 3.909-3.909 10.245 0 14.153 3.908 3.908 10.246 3.908 14.156 0 0.009-0.009 0.016-0.018 0.026-0.027l0.001 0.001 8.729-8.728-2.031-2.029-8.729 8.727c-0.009 0.008-0.018 0.018-0.026 0.026-2.784 2.783-7.312 2.783-10.096 0-2.783-2.783-2.783-7.31 0-10.093 0.010-0.009 0.019-0.018 0.028-0.026l-0.001-0.002 12.79-12.786c1.678-1.679 4.411-1.679 6.090 0s1.678 4.411 0 6.089l-12.18 12.178c-0.56 0.56-1.47 0.56-2.030 0-0.559-0.559-0.559-1.47 0-2.029l10.15-10.149z"></path>
</symbol>
  </defs>
</svg>
